D:\school\WTK\thesis\model\3dpredictsim\Results\Batchsim_tmt_linear_v2\Pog_s1_tmt_bCst_d05_k2000_ig24_act_GRF.mot
nRows=15
nColumns=19

name D:\school\WTK\thesis\model\3dpredictsim\Results\Batchsim_tmt_linear_v2\Pog_s1_tmt_bCst_d05_k2000_ig24_act_GRF.mot
datacolumns 19
datarows 15
range 0.0000000000 0.1634569369
endheader
time 	ground_force_vx	ground_force_vy	ground_force_vz	ground_force_px	ground_force_py	ground_force_pz	1_ground_force_vx	1_ground_force_vy	1_ground_force_vz	1_ground_force_px	1_ground_force_py	1_ground_force_pz	ground_torque_x	ground_torque_y	ground_torque_z	1_ground_torque_x	1_ground_torque_y	1_ground_torque_z
        0.0000000000	      -67.8752183788	       52.3433044217	        8.6813615833	        0.3442700465	        0.0000000000	        0.0314684711	       47.1808694539	      267.8659028198	       -9.4118505039	       -0.3437321865	        0.0000000000	       -0.0409307410	        0.0000000000	        0.0000000000	        0.0000000000	        0.0000000000	        0.0000000000	        0.0000000000	
        0.0116754955	     -128.3979876549	      112.2847969745	       17.8595172154	        0.3400556026	        0.0000000000	        0.0353160957	       30.3941042118	      218.1819593049	      -12.7000726308	       -0.3308830675	        0.0000000000	       -0.0377614261	        0.0000000000	        0.0000000000	        0.0000000000	        0.0000000000	        0.0000000000	        0.0000000000	
        0.0233509910	     -239.1165341318	      315.3232512442	       28.4491435148	        0.3132062137	        0.0000000000	        0.0474603944	       34.1233001339	      183.2420679883	      -16.8205277155	       -0.3303486955	        0.0000000000	       -0.0380594375	        0.0000000000	        0.0000000000	        0.0000000000	        0.0000000000	        0.0000000000	        0.0000000000	
        0.0350264865	     -177.9606619185	      535.3275484395	       -3.8935231800	        0.2893604383	        0.0000000000	        0.0562266195	       32.0451540215	      141.3433591282	      -20.9272875858	       -0.3298428785	        0.0000000000	       -0.0384382487	        0.0000000000	        0.0000000000	        0.0000000000	        0.0000000000	        0.0000000000	        0.0000000000	
        0.0467019820	     -186.4524676376	      741.2984999720	      -13.8071843946	        0.2797048888	        0.0000000000	        0.0592466113	       22.9721368797	       91.2823019274	      -18.0450600761	       -0.3294363827	        0.0000000000	       -0.0385375390	        0.0000000000	        0.0000000000	        0.0000000000	        0.0000000000	        0.0000000000	        0.0000000000	
        0.0583774775	     -196.6132931651	      882.6031188302	      -21.3193687966	        0.2724119693	        0.0000000000	        0.0617112325	        5.8869754451	       34.2149481291	       -8.7094798864	       -0.3297773822	        0.0000000000	       -0.0384797558	        0.0000000000	        0.0000000000	        0.0000000000	        0.0000000000	        0.0000000000	        0.0000000000	
        0.0700529729	     -190.1188872574	      923.7138686678	      -23.3052616932	        0.2680084705	        0.0000000000	        0.0631805198	        0.1993748689	       -0.2064021095	        0.0229293899	        0.0000000000	        0.0000000000	        0.0000000000	        0.0000000000	        0.0000000000	        0.0000000000	        0.0000000000	        0.0000000000	        0.0000000000	
        0.0817284684	     -169.8999152448	      902.0738225675	      -22.1596778211	        0.2645332502	        0.0000000000	        0.0641240877	        0.0082426860	       -0.0065788733	       -0.0001317878	        0.0000000000	        0.0000000000	        0.0000000000	        0.0000000000	        0.0000000000	        0.0000000000	        0.0000000000	        0.0000000000	        0.0000000000	
        0.0934039639	     -146.9529783400	      860.0577444336	      -21.1746301976	        0.2620752492	        0.0000000000	        0.0647089337	        0.1698908890	       -0.1131525298	       -0.0065897198	        0.0000000000	        0.0000000000	        0.0000000000	        0.0000000000	        0.0000000000	        0.0000000000	        0.0000000000	        0.0000000000	        0.0000000000	
        0.1050794594	     -128.0566687709	      809.6127547348	      -20.5251395933	        0.2614629052	        0.0000000000	        0.0650103785	       -1.7186343930	        1.0057929521	        0.0776610567	        0.0000000000	        0.0000000000	        0.0000000000	        0.0000000000	        0.0000000000	        0.0000000000	        0.0000000000	        0.0000000000	        0.0000000000	
        0.1167549549	     -112.5124712530	      761.2243578237	      -20.0643617500	        0.2620495638	        0.0000000000	        0.0651621090	       -2.0081686170	        1.0663841795	        0.0945258956	        0.0000000000	        0.0000000000	        0.0000000000	        0.0000000000	        0.0000000000	        0.0000000000	        0.0000000000	        0.0000000000	        0.0000000000	
        0.1284304504	      -98.3257044817	      718.8859724100	      -19.4799404865	        0.2632664796	        0.0000000000	        0.0652502009	       -1.7393482340	        0.8577092106	        0.0809459352	        0.0000000000	        0.0000000000	        0.0000000000	        0.0000000000	        0.0000000000	        0.0000000000	        0.0000000000	        0.0000000000	        0.0000000000	
        0.1401059459	      -85.0267418245	      687.6257478450	      -19.3166306597	        0.2650484018	        0.0000000000	        0.0652389559	       -1.2762235408	        0.5998242632	        0.0506768223	        0.0000000000	        0.0000000000	        0.0000000000	        0.0000000000	        0.0000000000	        0.0000000000	        0.0000000000	        0.0000000000	        0.0000000000	
        0.1517814414	      -75.5820857098	      664.4035820461	      -19.8587419891	        0.2671990410	        0.0000000000	        0.0650978163	       -0.9615527260	        0.4340353706	        0.0322771794	        0.0000000000	        0.0000000000	        0.0000000000	        0.0000000000	        0.0000000000	        0.0000000000	        0.0000000000	        0.0000000000	        0.0000000000	
        0.1634569369	      -68.0535731797	      646.0076699096	      -20.7934517108	        0.2695078470	        0.0000000000	        0.0648651298	       -0.7867378570	        0.3439848680	        0.0220805450	        0.0000000000	        0.0000000000	        0.0000000000	        0.0000000000	        0.0000000000	        0.0000000000	        0.0000000000	        0.0000000000	        0.0000000000	
